<svg width="90" height="83" viewBox="0 0 90 83" fill="none" xmlns="http://www.w3.org/2000/svg">
<g clip-path="url(#clip0)">
<path d="M26.4781 0L0.00665283 17.1394L18.3101 31.6743L45.0014 15.3303L26.4781 0ZM0.00665283 46.2101L26.4781 63.3495L45.0014 48.0173L18.3101 31.6744L0.00665283 46.2101ZM45.0014 48.0173L63.5248 63.3495L89.9962 46.2101L71.6927 31.6743L45.0014 48.0173Z" fill="#007EE5"/>
<path d="M89.9948 17.1394L63.5233 0L45 15.3304L71.6913 31.6744L89.9948 17.1394ZM45.0543 51.3163L26.4766 66.6031L18.5269 61.4559V67.2257L45.0543 82.9999L71.5818 67.2257V61.4558L63.632 66.6031L45.0543 51.3163Z" fill="#007EE5"/>
</g>
<defs>
<clipPath id="clip0">
<rect width="90" height="83" fill="white"/>
</clipPath>
</defs>
</svg>
