<svg width="72" height="72" viewBox="0 0 72 72" fill="none" xmlns="http://www.w3.org/2000/svg">
<g clip-path="url(#clip0)">
<path fill-rule="evenodd" clip-rule="evenodd" d="M36 0C15.8581 0 0.247986 14.7391 0.247986 34.6455C0.247986 45.0583 4.52089 54.0557 11.4772 60.2719C12.0599 60.7966 12.4123 61.5223 12.441 62.3056L12.6354 68.6583C12.7001 70.6849 14.7934 72 16.6494 71.1879L23.7423 68.0619C24.3423 67.7964 25.0155 67.7457 25.6486 67.9182C28.9072 68.8165 32.3818 69.2907 36 69.2907C56.142 69.2907 71.7521 54.5516 71.7521 34.6454C71.7521 14.7391 56.142 0 36 0Z" fill="url(#paint0_linear)"/>
<path fill-rule="evenodd" clip-rule="evenodd" d="M14.5345 44.7782L25.037 28.1347C26.7059 25.4901 30.2882 24.8289 32.7916 26.7046L41.1433 32.9639C41.5164 33.2427 41.97 33.3928 42.4357 33.3915C42.9015 33.3902 43.3543 33.2376 43.7258 32.9567L55.0054 24.4049C56.5088 23.2624 58.48 25.0663 57.4655 26.6615L46.9702 43.2979C45.3012 45.9424 41.7189 46.6037 39.2155 44.7279L30.8638 38.4686C30.4908 38.1898 30.0372 38.0397 29.5714 38.041C29.1056 38.0423 28.6528 38.1949 28.2813 38.4758L16.9946 47.0348C15.4912 48.1775 13.52 46.3736 14.5345 44.7782Z" fill="white"/>
</g>
<defs>
<linearGradient id="paint0_linear" x1="36" y1="0" x2="36" y2="71.4321" gradientUnits="userSpaceOnUse">
<stop stop-color="#00B2FF"/>
<stop offset="1" stop-color="#006AFF"/>
</linearGradient>
<clipPath id="clip0">
<rect width="72" height="72" fill="white"/>
</clipPath>
</defs>
</svg>
