<svg width="74" height="74" viewBox="0 0 74 74" fill="none" xmlns="http://www.w3.org/2000/svg">
<g clip-path="url(#clip0)">
<path d="M27.0731 64.9758C25.0824 64.9758 23.4634 63.3586 23.4634 61.366V12.6343C23.4634 10.6435 25.0824 9.02454 27.0731 9.02454H61.3658C63.3584 9.02454 64.9756 10.6435 64.9756 12.6343H68.5853C70.5779 12.6343 72.1951 14.2533 72.1951 16.244V25.2684C72.1951 27.2592 70.5779 28.8782 68.5853 28.8782C70.5779 28.8782 72.1951 30.4972 72.1951 32.488V41.5123C72.1951 42.4697 71.8148 43.3879 71.1378 44.0648C70.4608 44.7418 69.5427 45.1221 68.5853 45.1221C69.5427 45.1221 70.4608 45.5024 71.1378 46.1794C71.8148 46.8563 72.1951 47.7745 72.1951 48.7319V57.7562C72.1951 58.7136 71.8148 59.6318 71.1378 60.3087C70.4608 60.9857 69.5427 61.366 68.5853 61.366H64.9756C64.9756 62.3234 64.5952 63.2415 63.9183 63.9185C63.2413 64.5955 62.3232 64.9758 61.3658 64.9758H27.0731Z" fill="white"/>
<path d="M74 16.244C74 13.2587 71.5706 10.8294 68.5853 10.8294H66.4718C66.0974 9.77425 65.4056 8.86087 64.4914 8.21456C63.5772 7.56826 62.4854 7.22071 61.3658 7.2196H27.0731C24.0879 7.2196 21.6585 9.64897 21.6585 12.6342V61.3659C21.6585 64.3512 24.0879 66.7806 27.0731 66.7806H61.3658C62.4854 66.7795 63.5772 66.4319 64.4914 65.7856C65.4056 65.1393 66.0974 64.2259 66.4718 63.1708H68.5853C71.5706 63.1708 74 60.7415 74 57.7562V48.7318C74 47.3456 73.4765 46.0804 72.6174 45.122C73.5086 44.131 74.0011 42.8451 74 41.5123V32.4879C74 31.1017 73.4765 29.8365 72.6174 28.8781C73.5086 27.8871 74.0011 26.6012 74 25.2684V16.244ZM70.3902 57.7562C70.3902 58.2349 70.2 58.6939 69.8616 59.0324C69.5231 59.3709 69.064 59.5611 68.5853 59.5611H66.7804V46.9269H68.5853C69.064 46.9269 69.5231 47.1171 69.8616 47.4556C70.2 47.794 70.3902 48.2531 70.3902 48.7318V57.7562ZM70.3902 41.5123C70.3902 41.991 70.2 42.45 69.8616 42.7885C69.5231 43.127 69.064 43.3172 68.5853 43.3172H66.7804V30.683H68.5853C69.064 30.683 69.5231 30.8732 69.8616 31.2117C70.2 31.5501 70.3902 32.0092 70.3902 32.4879V41.5123ZM70.3902 25.2684C70.3902 25.7471 70.2 26.2061 69.8616 26.5446C69.5231 26.8831 69.064 27.0733 68.5853 27.0733H63.1707V61.3659C63.1707 61.8446 62.9805 62.3037 62.6421 62.6422C62.3036 62.9807 61.8445 63.1708 61.3658 63.1708H27.0731C26.5945 63.1708 26.1354 62.9807 25.7969 62.6422C25.4584 62.3037 25.2683 61.8446 25.2683 61.3659V12.6342C25.2683 12.1556 25.4584 11.6965 25.7969 11.358C26.1354 11.0195 26.5945 10.8294 27.0731 10.8294H61.3658C61.8445 10.8294 62.3036 11.0195 62.6421 11.358C62.9805 11.6965 63.1707 12.1556 63.1707 12.6342V14.4391H68.5853C69.064 14.4391 69.5231 14.6293 69.8616 14.9678C70.2 15.3062 70.3902 15.7653 70.3902 16.244V25.2684Z" fill="#80397B"/>
<path d="M37.9025 16.2439H55.9513V19.8537H37.9025V16.2439ZM37.9025 27.0732H55.9513V23.4634H37.9025V27.0732ZM37.9025 34.2927H55.9513V30.6829H37.9025V34.2927ZM37.9025 41.5122H55.9513V37.9024H37.9025V41.5122ZM37.9025 48.7317H55.9513V45.1219H37.9025V48.7317ZM37.9025 55.9512H55.9513V52.3415H37.9025V55.9512Z" fill="#80397B"/>
<path d="M37.9025 16.2439H55.9513V19.8537H37.9025V16.2439ZM37.9025 27.0732H55.9513V23.4634H37.9025V27.0732ZM37.9025 34.2927H55.9513V30.6829H37.9025V34.2927ZM37.9025 41.5122H55.9513V37.9024H37.9025V41.5122ZM37.9025 48.7317H55.9513V45.1219H37.9025V48.7317ZM37.9025 55.9512H55.9513V52.3415H37.9025V55.9512Z" fill="#80397B"/>
<path d="M43.3171 0L0 9.02439V64.9756L43.3171 74V0Z" fill="#80397B"/>
<g opacity="0.05">
<path opacity="0.05" d="M43.3171 0L0 9.02439V64.9756L43.3171 74V0Z" fill="url(#paint0_linear)"/>
</g>
<path d="M27.5243 21.6585V42.8659C27.3944 42.5915 16.2439 22.1098 16.2439 22.1098L10.8292 22.561V50.9752L16.2439 51.2766C16.2439 51.2766 16.2655 29.9682 16.2439 29.6903L26.9071 51.9733L33.3902 52.3415V20.7561L27.5243 21.6585Z" fill="white"/>
</g>
<defs>
<linearGradient id="paint0_linear" x1="0" y1="37" x2="43.3171" y2="37" gradientUnits="userSpaceOnUse">
<stop stop-color="white"/>
<stop offset="1"/>
</linearGradient>
<clipPath id="clip0">
<rect width="74" height="74" fill="white"/>
</clipPath>
</defs>
</svg>
