<svg width="67" height="66" viewBox="0 0 67 66" fill="none" xmlns="http://www.w3.org/2000/svg">
<g clip-path="url(#clip0)">
<path d="M35.2524 0H39.5669V6.90698C47.7023 6.95302 55.8449 6.82225 63.9724 6.94504C65.7226 6.7762 67.0924 8.14962 66.9177 9.91473C67.0468 24.2505 66.8873 38.5937 66.9938 52.9375C66.9177 54.4878 67.146 56.2068 66.2633 57.5802C65.1522 58.3937 63.7063 58.2863 62.4047 58.3477C54.7948 58.3096 47.1848 58.325 39.5669 58.325V65.9994H34.8341C23.2366 63.8659 11.6159 61.9166 0.0109943 59.8598C0.00307994 41.9557 0.0109943 24.051 0.0109943 6.15427C11.7522 4.10612 23.4947 2.01868 35.2524 0Z" fill="#D24625"/>
<path d="M39.5664 9.20935H64.6792V56.0233H39.5664V49.8838H57.8303V46.814H39.5664V42.9768H57.8303V39.907H39.5743C39.5664 38.4028 39.5664 36.8987 39.5597 35.3945C42.5732 36.3381 46.005 36.3154 48.6989 34.4883C51.6138 32.7465 53.1358 29.4232 53.3866 26.1078C50.0462 26.0845 46.7051 26.0925 43.3719 26.0925C43.3646 22.7538 43.4097 19.4157 43.3038 16.085C42.0557 16.3306 40.8077 16.5915 39.567 16.8598V9.20935H39.5664Z" fill="white"/>
<path d="M44.9012 14.4813C50.1904 14.7269 54.634 19.2161 54.9159 24.5348C51.5748 24.5735 48.2344 24.5581 44.8933 24.5581C44.8933 21.1967 44.886 17.8353 44.9012 14.4813Z" fill="#D24625"/>
<path d="M12.2162 20.2758C16.3487 20.4753 21.356 18.6255 24.7805 21.7493C28.0607 25.7633 27.1932 33.1455 22.3301 35.5485C20.6029 36.4381 18.6243 36.316 16.7444 36.2539C16.7365 39.2549 16.7298 42.2553 16.7365 45.2563C15.2274 45.1241 13.718 44.9962 12.2082 44.8726C12.1401 36.6757 12.1254 28.4721 12.2162 20.2758Z" fill="white"/>
<path d="M16.7365 24.4279C18.2359 24.3585 20.0928 24.0828 21.1052 25.5023C21.9727 27.0065 21.9271 28.9865 21.2038 30.5367C20.3363 32.1176 18.3729 31.9641 16.8582 32.1483C16.6981 29.5771 16.7139 27.0058 16.7365 24.4279Z" fill="#D24625"/>
</g>
<defs>
<clipPath id="clip0">
<rect width="67" height="66" fill="white"/>
</clipPath>
</defs>
</svg>
