<svg width="79" height="77" viewBox="0 0 79 77" fill="none" xmlns="http://www.w3.org/2000/svg">
<path d="M41.7285 25.6675C47.9848 25.6675 53.0566 20.6396 53.0566 14.4375C53.0566 8.23535 47.9848 3.20752 41.7285 3.20752C35.4721 3.20752 30.4004 8.23535 30.4004 14.4375C30.4004 20.6396 35.4721 25.6675 41.7285 25.6675Z" fill="#7B83EB"/>
<path opacity="0.1" d="M40.9201 16.8438H30.66L30.711 17.0675L30.7159 17.0868L30.7693 17.2937C31.5148 20.0963 33.3236 22.505 35.818 24.017C38.3124 25.5289 41.2995 26.0271 44.1557 25.4076V20.0513C44.1531 19.2014 43.8114 18.387 43.2052 17.786C42.5989 17.185 41.7775 16.8463 40.9201 16.8438Z" fill="black"/>
<path opacity="0.2" d="M38.4928 19.25H31.4926C32.4113 21.1702 33.8608 22.7926 35.6727 23.9286C37.4846 25.0646 39.5845 25.6676 41.7284 25.6675V22.4575C41.7258 21.6076 41.3841 20.7932 40.7779 20.1923C40.1716 19.5913 39.3501 19.2525 38.4928 19.25Z" fill="black"/>
<path d="M67.2148 26.4688C71.9067 26.4688 75.7103 22.6981 75.7103 18.0469C75.7103 13.3956 71.9067 9.625 67.2148 9.625C62.5229 9.625 58.7194 13.3956 58.7194 18.0469C58.7194 22.6981 62.5229 26.4688 67.2148 26.4688Z" fill="#5059C9"/>
<path d="M74.4966 28.875H55.4158C55.0038 28.875 54.6087 29.0372 54.3173 29.3261C54.026 29.6149 53.8623 30.0066 53.8623 30.415V49.9297C53.8098 52.754 54.7376 55.5105 56.4905 57.7375C58.2435 59.9646 60.715 61.527 63.4913 62.1631C65.2596 62.5309 67.0883 62.5031 68.8444 62.0819C70.6004 61.6606 72.2396 60.8565 73.6426 59.7279C75.0456 58.5994 76.1771 57.1749 76.9547 55.5582C77.7322 53.9414 78.1363 52.1732 78.1375 50.3821V32.4844C78.1375 31.5271 77.7539 30.609 77.0711 29.9322C76.3883 29.2553 75.4622 28.875 74.4966 28.875Z" fill="#5059C9"/>
<path d="M61.1466 32.4844V55.3437C61.149 59.5801 59.7408 63.6987 57.1405 67.0605C54.5402 70.4223 50.8933 72.8392 46.7658 73.9362C42.6382 75.0332 38.2608 74.7489 34.3128 73.1275C30.3649 71.506 27.0673 68.6381 24.9316 64.9687C24.4646 64.1992 24.0588 63.3947 23.718 62.5625C23.4003 61.7779 23.1328 60.9742 22.917 60.1562C22.5168 58.5827 22.313 56.9665 22.3102 55.3437V32.4844C22.3095 32.0102 22.4033 31.5406 22.586 31.1024C22.7688 30.6642 23.0369 30.266 23.3752 29.9308C23.7134 29.5955 24.115 29.3296 24.557 29.1485C24.999 28.9673 25.4728 28.8744 25.9511 28.875H57.5057C57.984 28.8744 58.4577 28.9673 58.8997 29.1485C59.3418 29.3296 59.7434 29.5955 60.0816 29.9308C60.4198 30.266 60.688 30.6642 60.8707 31.1024C61.0535 31.5406 61.1472 32.0102 61.1466 32.4844Z" fill="#7B83EB"/>
<path opacity="0.2" d="M38.4928 19.25H31.4926C32.4113 21.1702 33.8608 22.7926 35.6727 23.9286C37.4846 25.0646 39.5845 25.6676 41.7284 25.6675V22.4575C41.7258 21.6076 41.3841 20.7932 40.7779 20.1923C40.1716 19.5913 39.3501 19.2525 38.4928 19.25Z" fill="black"/>
<path opacity="0.1" d="M44.1556 28.875V59.3622C44.1557 60.0876 43.9052 60.7911 43.446 61.3558C42.9867 61.9205 42.3463 62.3124 41.6313 62.4663C41.4029 62.5336 41.1656 62.5661 40.9274 62.5625H23.718C23.4003 61.7779 23.1328 60.9742 22.917 60.1563C22.5168 58.5827 22.313 56.9665 22.3102 55.3438V32.4844C22.3095 32.0102 22.4033 31.5406 22.586 31.1024C22.7688 30.6642 23.0369 30.266 23.3752 29.9308C23.7134 29.5955 24.115 29.3296 24.557 29.1485C24.999 28.9673 25.4728 28.8744 25.9511 28.875H44.1556Z" fill="black"/>
<path opacity="0.2" d="M41.7284 28.875V61.7684C41.7319 62.0046 41.6992 62.2399 41.6313 62.4662C41.4761 63.1751 41.0808 63.8099 40.5111 64.2652C39.9415 64.7205 39.2318 64.9688 38.5001 64.9687H24.9316C24.4646 64.1992 24.0588 63.3946 23.718 62.5625C23.4003 61.7779 23.1328 60.9742 22.917 60.1562C22.5168 58.5827 22.313 56.9665 22.3102 55.3437V32.4844C22.3095 32.0102 22.4033 31.5406 22.586 31.1024C22.7688 30.6642 23.0369 30.266 23.3752 29.9308C23.7134 29.5955 24.115 29.3296 24.557 29.1485C24.999 28.9673 25.4728 28.8744 25.9511 28.875H41.7284Z" fill="black"/>
<path opacity="0.2" d="M41.7284 28.875V56.9559C41.7245 57.8035 41.3832 58.6154 40.7786 59.2147C40.174 59.8141 39.3551 60.1525 38.5001 60.1563H22.917C22.5168 58.5827 22.313 56.9665 22.3102 55.3438V32.4844C22.3095 32.0102 22.4033 31.5406 22.586 31.1024C22.7688 30.6642 23.0369 30.266 23.3752 29.9308C23.7134 29.5955 24.115 29.3296 24.557 29.1485C24.999 28.9673 25.4728 28.8744 25.9511 28.875H41.7284Z" fill="black"/>
<path opacity="0.2" d="M25.9511 28.875C25.4728 28.8744 24.999 28.9673 24.557 29.1485C24.115 29.3296 23.7134 29.5955 23.3752 29.9308C23.0369 30.266 22.7688 30.6642 22.586 31.1024C22.4033 31.5406 22.3095 32.0102 22.3102 32.4844V55.3438C22.313 56.9665 22.5168 58.5827 22.917 60.1563H36.0728C36.9278 60.1525 37.7467 59.8141 38.3513 59.2147C38.9559 58.6154 39.2973 57.8035 39.3011 56.9559V28.875H25.9511Z" fill="black"/>
<path d="M3.70028 19.25H36.0656C36.9237 19.25 37.7467 19.5879 38.3534 20.1895C38.9602 20.791 39.3011 21.6068 39.3011 22.4575V54.5425C39.3011 55.3932 38.9602 56.209 38.3534 56.8105C37.7467 57.4121 36.9237 57.75 36.0656 57.75H3.70028C2.84216 57.75 2.01918 57.4121 1.41239 56.8105C0.80561 56.209 0.464722 55.3932 0.464722 54.5425L0.464722 22.4575C0.464722 21.6068 0.80561 20.791 1.41239 20.1895C2.01918 19.5879 2.84216 19.25 3.70028 19.25Z" fill="#4B53BC"/>
<path d="M29.5435 31.221H22.286V50.5191H17.5237V31.221H10.2224V26.4807H29.5435V31.221Z" fill="white"/>
</svg>
