<svg width="80" height="80" viewBox="0 0 80 80" fill="none" xmlns="http://www.w3.org/2000/svg">
<path d="M41.4165 61.9747L28.3032 61.7352C24.0574 61.6518 19.8011 61.8183 15.6385 60.9539C9.3063 59.6624 8.85771 53.3298 8.3883 48.0179C7.7415 40.5501 7.9919 32.9467 9.21248 25.5412C9.90155 21.386 12.6133 18.9065 16.8069 18.6367C30.9634 17.6575 45.2141 17.7735 59.3392 18.2304C60.831 18.2722 62.333 18.5011 63.804 18.7617C71.0651 20.0324 71.2422 27.2087 71.7129 33.2498C72.1823 39.3532 71.9841 45.4879 71.0869 51.5498C70.3671 56.5688 68.9899 60.7778 63.178 61.1841C55.8961 61.7154 48.7814 62.1431 41.479 62.0069C41.4793 61.9747 41.4374 61.9747 41.4165 61.9747ZM33.7072 49.2678C39.1947 46.1222 44.5775 43.0289 50.0337 39.9043C44.5359 36.7586 39.1633 33.6653 33.7072 30.5408V49.2678Z" fill="#FF0000"/>
</svg>
